<?xml version="1.0" standalone="no"?>
<!DOCTYPE svg PUBLIC "-//W3C//DTD SVG 20010904//EN"
 "http://www.w3.org/TR/2001/REC-SVG-20010904/DTD/svg10.dtd">
<svg version="1.0" xmlns="http://www.w3.org/2000/svg"
 width="260.000000pt" height="260.000000pt" viewBox="0 0 260.000000 260.000000"
 preserveAspectRatio="xMidYMid meet">
<metadata>
Created by potrace 1.11, written by Peter Selinger 2001-2013
</metadata>
<g transform="translate(0.000000,260.000000) scale(0.100000,-0.100000)"
fill="#000000" stroke="none">
<path d="M1114 2435 c-164 -29 -283 -79 -435 -180 -341 -227 -524 -560 -524
-955 0 -250 68 -462 211 -661 349 -484 1027 -612 1525 -287 109 71 264 222
327 318 295 450 244 1025 -125 1410 -170 179 -430 318 -663 356 -103 17 -221
17 -316 -1z m-418 -394 c5 -5 81 -41 168 -80 l159 -72 63 16 c137 34 307 29
436 -13 l53 -18 172 85 c129 64 175 83 184 74 8 -8 3 -59 -21 -200 l-33 -188
31 -50 c55 -90 76 -168 76 -285 1 -85 -4 -119 -23 -178 -92 -281 -397 -469
-726 -449 -301 19 -547 192 -636 447 -18 52 -23 86 -23 175 0 123 19 193 74
282 58 93 56 78 26 268 -15 96 -24 179 -21 185 8 12 28 13 41 1z m972 -1499
c2 -126 -1 -145 -24 -122 -6 6 -79 34 -164 64 l-154 55 -160 -65 c-89 -36
-167 -68 -173 -71 -10 -4 -13 25 -13 125 0 72 4 133 9 136 5 3 84 -21 176 -54
l166 -59 157 63 c86 35 162 63 167 62 6 -2 11 -57 13 -134z"/>
</g>
</svg>
